<?xml version="1.0" standalone="no"?><!DOCTYPE svg PUBLIC "-//W3C//DTD SVG 1.1//EN" "http://www.w3.org/Graphics/SVG/1.1/DTD/svg11.dtd"><svg t="1684286678808" class="icon" viewBox="0 0 1024 1024" version="1.1" xmlns="http://www.w3.org/2000/svg" p-id="20736" xmlns:xlink="http://www.w3.org/1999/xlink" width="200" height="200"><path d="M512 128c102.2 0 199.3 40.25 271.55 112.45C855.75 312.7 896 409.8 896 512s-40.25 199.3-112.45 271.55C711.3 855.75 614.2 896 512 896s-199.3-40.25-271.55-112.45C168.25 711.3 128 614.2 128 512s40.25-199.3 112.45-271.55C312.7 168.25 409.8 128 512 128z" fill="#E53935" p-id="20737"></path><path d="M512 172.05c90.45 0 176.4 35.6 240.35 99.55 63.95 63.95 99.55 149.9 99.55 240.35 0 90.45-35.6 176.4-99.55 240.35-63.95 63.95-149.9 99.55-240.35 99.55-90.45 0-176.4-35.6-240.35-99.55-63.95-63.95-99.55-149.9-99.55-240.35 0-90.45 35.6-176.4 99.55-240.35C335.6 207.7 421.55 172.05 512 172.05z" fill="#FFE0B2" p-id="20738"></path><path d="M666 324.5l-262.45 34.25c-8 0.35-14.35 6.95-14.35 15v203.35c-10.85-7.15-23.55-11.05-36.8-11.05-17.8 0-34.7 7-47.3 19.6-12.6 12.6-19.6 29.5-19.6 47.3s7 34.7 19.6 47.3c12.6 12.6 29.5 19.6 47.3 19.6 17.8 0 34.7-7 47.3-19.6 10-10 16.5-22.75 18.7-36.45 0.55-1.6 0.85-3.3 0.85-5.05v-133l234.9-30.65v102.05c-10.85-7.15-23.55-11.05-36.8-11.05-17.8 0-34.7 7-47.3 19.6-12.6 12.6-19.6 29.5-19.6 47.3s7 34.7 19.6 47.3c12.6 12.6 29.5 19.6 47.3 19.6 17.8 0 34.7-7 47.3-19.6 10-10 16.45-22.75 18.7-36.45 0.55-1.6 0.9-3.3 0.9-5.05 0-25.05 3.85-300 0-299.5 0-8.3-6.75-15.05-15.05-15.05-1.1-0.1-2.15 0.05-3.2 0.25zM421.2 388.7v84.45l232.7-30.35c0.1-29.35-1.65-57.4-1.65-84.25l-231.05 30.15z" fill="#E53935" p-id="20739"></path></svg>