<?xml version="1.0" standalone="no"?><!DOCTYPE svg PUBLIC "-//W3C//DTD SVG 1.1//EN" "http://www.w3.org/Graphics/SVG/1.1/DTD/svg11.dtd"><svg t="1684287476561" class="icon" viewBox="0 0 1024 1024" version="1.1" xmlns="http://www.w3.org/2000/svg" p-id="2945" xmlns:xlink="http://www.w3.org/1999/xlink" width="32" height="32"><path d="M1023.969343 511.946281A511.77753 511.77753 0 1 1 626.119623 12.873428a503.76806 503.76806 0 0 1 82.856588 26.376014 512.329907 512.329907 0 0 1 314.993132 472.696839z" fill="#EA5D5B" p-id="2946"></path><path d="M708.976211 39.249442v472.696839h-82.856588V12.873428a503.76806 503.76806 0 0 1 82.856588 26.376014z" fill="#F5B4B5" p-id="2947"></path><path d="M511.915624 709.006868a197.060587 197.060587 0 1 1 197.060587-197.060587 197.198681 197.198681 0 0 1-197.060587 197.060587z m0-311.264585a114.203998 114.203998 0 1 0 114.203999 114.203998 114.342093 114.342093 0 0 0-114.203999-114.203998z" fill="#FAD8D7" p-id="2948"></path></svg>