<?xml version="1.0" standalone="no"?><!DOCTYPE svg PUBLIC "-//W3C//DTD SVG 1.1//EN" "http://www.w3.org/Graphics/SVG/1.1/DTD/svg11.dtd"><svg t="1684286899737" class="icon" viewBox="0 0 1024 1024" version="1.1" xmlns="http://www.w3.org/2000/svg" p-id="28610" width="32" height="32" xmlns:xlink="http://www.w3.org/1999/xlink"><path d="M517.12 509.696m-432.3328 0a432.3328 432.3328 0 1 0 864.6656 0 432.3328 432.3328 0 1 0-864.6656 0Z" fill="#F66755" p-id="28611"></path><path d="M292.1472 415.5904c-85.0432 0-160.4096 41.3696-207.104 105.0624 4.5568 182.7328 122.368 337.3056 285.952 396.032 103.2192-33.28 177.92-130.048 177.92-244.3776 0-141.7728-114.944-256.7168-256.768-256.7168z" fill="#FF7D73" p-id="28612"></path><path d="M414.464 692.8384c-21.4528 0-38.8096-17.3568-38.8096-38.8096V365.4144c0-21.4528 17.3568-38.8096 38.8096-38.8096 21.4528 0 38.8096 17.3568 38.8096 38.8096v288.6656c0 21.4016-17.3568 38.7584-38.8096 38.7584z" fill="#FFFFFF" p-id="28613"></path><path d="M638.3616 692.8384c-21.4528 0-38.8096-17.3568-38.8096-38.8096V365.4144c0-21.4528 17.3568-38.8096 38.8096-38.8096 21.4528 0 38.8096 17.3568 38.8096 38.8096v288.6656c0 21.4016-17.408 38.7584-38.8096 38.7584z" fill="#FFCAC7" p-id="28614"></path></svg>